<svg version="1.2" xmlns="http://www.w3.org/2000/svg" viewBox="0 0 514 518" width="514" height="518">
	<style>
		.s0 { opacity: 1;fill: #757575 } 
		.s1 { opacity: 1;fill: #4caf50 } 
	</style>
	<g id="Background">
		<path id="Path 0" class="s0" d="m239.83 26.49c-0.18 0.19-3.48 0.63-7.33 0.98-3.85 0.36-11.73 1.55-17.5 2.65-5.78 1.11-15.45 3.39-21.5 5.08-6.05 1.69-13.7 4.08-17 5.32-3.3 1.23-7.8 2.99-10 3.91-2.2 0.91-7.38 3.32-11.5 5.35-4.13 2.02-12 6.35-17.5 9.62-5.5 3.27-12.25 7.52-15 9.44-2.75 1.93-8.15 5.97-12 8.99-3.85 3.01-13.09 11.6-20.54 19.08-7.45 7.47-16.42 17.42-19.95 22.09-3.52 4.68-8.86 12.32-11.87 17-3.01 4.68-7.62 12.78-10.25 18-2.62 5.22-5.97 12.2-7.43 15.5-1.46 3.3-3.91 9.82-5.43 14.5-1.53 4.68-3.5 10.97-4.38 14-0.88 3.03-2.04 7.53-2.57 10-0.53 2.47-1.47 7.65-2.08 11.5-0.61 3.85-1.57 10.38-2.12 14.5-0.55 4.13-1.2 14.93-1.45 24-0.24 9.07 0.04 20.77 0.63 26 0.59 5.23 1.73 13.32 2.53 18 0.8 4.68 2.77 13.68 4.37 20 1.61 6.32 4.57 16.23 6.58 22 2 5.77 5.73 14.77 8.29 20 2.55 5.23 6.82 13.32 9.5 18 2.68 4.68 7.6 12.32 10.93 17 3.33 4.68 8.33 11.2 11.11 14.5 2.78 3.3 10.25 11.19 16.59 17.54 6.35 6.34 13.79 13.44 16.54 15.77 2.75 2.33 10.62 7.99 17.5 12.58 6.87 4.59 16.32 10.38 21 12.87 4.67 2.49 12.55 6.21 17.5 8.27 4.95 2.06 12.82 4.99 17.5 6.52 4.67 1.53 13 3.89 18.5 5.26 5.5 1.37 16.3 3.49 24 4.72 11.3 1.81 16.92 2.17 29.16 1.86 8.34-0.22 15.54-0.78 16-1.26 0.46-0.47 0-1.37-1.03-2-1.04-0.62-5.5-3.83-9.93-7.13-4.43-3.3-10.78-9.19-14.12-13.09-3.35-3.89-6.87-8.05-7.83-9.25-1.33-1.63-2.84-2.16-6.25-2.16-2.48 0-9.34-0.95-15.25-2.1-5.91-1.16-11.2-2.21-11.75-2.34-0.55-0.12-3.03-0.77-5.5-1.44-2.48-0.67-8.1-2.6-12.5-4.3-4.4-1.69-12.05-4.97-17-7.28-4.95-2.31-12.83-6.58-17.5-9.49-4.68-2.91-11.65-7.66-15.5-10.55-3.85-2.9-10.56-8.58-14.92-12.63-4.36-4.05-11.73-11.64-16.39-16.87-4.65-5.23-12.19-15.12-16.75-22-4.56-6.87-10.75-17.68-13.77-24-3.02-6.32-6.62-14.87-8.01-19-1.39-4.12-3.43-10.87-4.53-15-1.11-4.12-2.26-8.85-2.56-10.5-0.3-1.65-0.77-4.12-1.05-5.5-0.27-1.37-0.78-4.3-1.11-6.5-0.34-2.2-0.97-6.48-1.41-9.5-0.44-3.02-0.78-13.82-0.77-24 0.02-12.37 0.6-22.14 1.74-29.5 0.94-6.05 2.48-13.93 3.42-17.5 0.94-3.57 3.08-10.77 4.76-16 1.67-5.22 3.92-11.52 5-14 1.08-2.47 3.66-7.87 5.75-12 2.08-4.12 4.42-8.6 5.19-9.95 0.78-1.35 4.3-6.75 7.83-12 3.54-5.25 9.68-13.37 13.66-18.05 3.98-4.67 10.09-11.23 13.58-14.57 3.49-3.34 8.81-8.22 11.84-10.85 3.02-2.63 10.45-8.09 16.5-12.12 6.05-4.03 16.62-10.04 23.5-13.36 6.87-3.31 18.57-8.02 26-10.46 7.42-2.44 18.45-5.38 24.5-6.53 6.05-1.15 15.5-2.52 21-3.03 5.5-0.52 16.3-0.77 24-0.56 7.7 0.22 16.02 0.65 18.5 0.97 2.48 0.32 8.32 1.25 13 2.07 4.67 0.82 11.2 2.18 14.5 3.03 3.3 0.85 10.95 3.14 17 5.09 6.05 1.95 16.17 6.12 22.5 9.27 6.32 3.15 13.3 6.75 15.5 7.99 2.2 1.25 7.37 4.55 11.5 7.35 4.12 2.79 9.75 6.84 12.5 9 2.75 2.16 8.15 6.96 12 10.66 3.85 3.7 8.81 8.72 11.01 11.14 2.21 2.43 6.33 7.34 9.15 10.91 2.83 3.57 7.69 10.32 10.82 15 3.12 4.68 8.53 14.35 12.02 21.5 3.49 7.15 7.75 17.28 9.48 22.5 1.72 5.23 4.21 13.78 5.53 19 1.32 5.23 2.93 13.55 3.56 18.5 0.64 4.95 1.3 15.98 1.47 24.5l0.32 15.5c5.24 6.98 7.53 10.24 8.45 11.75 0.93 1.51 3.23 6.46 5.11 11 1.88 4.54 4.35 11.96 5.5 16.5 1.14 4.54 2.19 10.05 2.33 12.25 0.14 2.21 0.59 4.01 1 4 0.41 0 0.52-0.9 0.25-2-0.27-1.1-0.16-1.99 0.25-1.98 0.41 0.02 1.54-2.8 2.5-6.25 0.97-3.45 2.39-9.42 3.18-13.27 0.78-3.85 1.66-8.8 1.95-11 0.29-2.2 0.88-6.93 1.32-10.5 0.44-3.57 0.8-13.7 0.79-22.5-0.01-8.8-0.37-18.7-0.8-22-0.44-3.3-1-7.57-1.26-9.5-0.26-1.93-0.89-5.97-1.41-9-0.53-3.02-1.15-6.62-1.38-8-0.24-1.37-1.19-5.43-2.11-9-0.92-3.57-2.6-9.65-3.74-13.5-1.14-3.85-3.85-11.5-6.02-17-2.17-5.5-6.59-15.18-9.82-21.5-3.23-6.32-8.86-16-12.51-21.5-3.65-5.5-8.28-12.02-10.29-14.5-2-2.47-4.55-5.62-5.65-6.99-1.1-1.36-6.5-7.02-12-12.57-5.5-5.56-13.6-13.01-18-16.56-4.4-3.56-10.93-8.53-14.5-11.05-3.58-2.52-11-7.18-16.5-10.35-5.5-3.17-14.73-7.99-20.5-10.71-5.77-2.73-17.02-7.13-25-9.79-7.98-2.65-20.13-5.96-27-7.34-6.88-1.38-15.43-2.81-19-3.19-3.58-0.38-7.4-0.9-8.5-1.16-1.1-0.26-10.62-0.63-21.17-0.81-10.54-0.18-19.31-0.17-19.5 0.01z"/>
		<path id="Path 1" class="s1" d="m256 60.73c2.48 0.21 6.07 0.21 8 0 1.93-0.22-0.1-0.39-4.5-0.39-4.4 0.01-5.97 0.18-3.5 0.39zm207.35 200.27c0 4.68 0.17 6.48 0.38 4 0.21-2.48 0.21-6.3 0-8.5-0.21-2.2-0.38-0.18-0.38 4.5z"/>
		<path id="Path 2" class="s0" d="m212 104.38c-3.42 1.82-5.17 3.68-7.28 7.76l-2.78 5.36 0.06 88.5c-89.62 0-90.04 0.02-94.66 2.25-2.57 1.24-5.53 3.38-6.59 4.75-1.06 1.38-2.58 4.07-3.37 6-1.16 2.85-1.42 11.18-1.4 44.75 0.01 32.8 0.3 41.92 1.4 44.5 0.76 1.79 2.9 4.68 4.75 6.44 1.85 1.75 4.61 3.66 6.12 4.25 1.79 0.69 18.56 1.06 48.25 1.06h45.5l0.5 91.67c4.24 6.07 6.94 8.83 8.73 10.06 1.8 1.23 5.52 3.1 8.27 4.16l5 1.92c1.14-18.88 2.05-23.59 4.64-31.34 1.85-5.52 5.61-13.84 8.36-18.5 4.21-7.13 8.72-12.18 28.58-31.97 12.97-12.93 36.37-36.12 52-51.55 18.29-18.06 31.09-29.86 35.92-33.11 4.12-2.78 9.75-6.18 12.5-7.56 2.75-1.38 7.25-3.23 10-4.11 2.75-0.88 6.57-1.89 8.5-2.24 1.93-0.35 8.45-0.62 14.5-0.6 6.05 0.03 13.02 0.51 15.5 1.08 2.48 0.57 5.29 1.05 6.25 1.07 1.6 0.02 1.73-1.25 1.5-14.9-0.25-14.78-0.28-14.95-3.25-19.16-1.65-2.33-4.57-5.06-6.5-6.05-1.93-0.99-4.63-2.01-6-2.26-1.38-0.26-22.64-0.49-47.25-0.54l-44.75-0.07c0-80.97-0.28-90.65-1.38-93.25-0.75-1.79-2.67-4.46-4.25-5.94-1.58-1.47-4.11-3.16-5.62-3.75-1.79-0.69-17.55-1.06-45-1.06l-42.25-0.01z"/>
		<path id="Path 3" fill-rule="evenodd" class="s1" d="m258.5 101.46c22.55 0 32 0.13 21 0.29-11 0.16-29.45 0.16-41 0-11.55-0.16-2.55-0.29 20-0.29zm57.25 38.54c0.16 11.82 0.16 31.63 0 44-0.16 12.38-0.29 2.7-0.29-21.5 0-24.2 0.13-34.32 0.29-22.5zm-220 104c0.16 10.73 0.16 28.5 0 39.5-0.16 11-0.29 2.23-0.29-19.5 0-21.72 0.13-30.72 0.29-20zm327.99-14c0.2 3.03 0.2 8.2 0 11.5-0.2 3.3-0.36 0.82-0.36-5.5 0-6.32 0.16-9.02 0.36-6zm-22.74 35.44c4.12 0.23 10.42 1.17 14 2.09 3.57 0.93 9.2 2.96 12.5 4.53 3.3 1.57 8.68 5.01 11.95 7.65 3.28 2.63 8.14 7.49 10.82 10.79 2.67 3.3 6.36 9.15 8.2 13 1.84 3.85 4.13 10.38 5.1 14.5 1.29 5.53 1.6 9.86 1.2 16.5-0.35 5.81-1.38 11.31-2.91 15.5-1.31 3.57-3.95 9.19-5.87 12.48-2.4 4.11-11.63 14.21-29.49 32.28-14.3 14.46-26.56 26.28-27.25 26.27-0.93-0.02-1.13-2-0.77-7.78 0.27-4.26 0.47-9.55 0.45-11.75-0.01-2.2-0.65-6.93-2.8-17l17.83-18c17.6-17.77 17.86-18.09 19.96-25 1.17-3.85 2.11-8.69 2.1-10.75-0.01-2.06-0.95-6.56-2.08-10-1.13-3.44-3.61-8.39-5.5-11-1.89-2.61-5.5-6.21-8.02-8-2.52-1.79-6.69-4.09-9.25-5.13-2.9-1.16-7.32-1.91-11.67-1.96-5.99-0.07-8.01 0.41-14 3.28-6.48 3.11-10.61 6.96-55.3 51.46-26.56 26.46-49.84 50.35-51.72 53.1-1.88 2.75-4.16 7.93-5.07 11.5-1.06 4.2-1.43 8.27-1.03 11.5 0.33 2.75 1.69 7.25 3.02 10 1.33 2.75 4.94 7.36 8.01 10.25 4.23 3.98 6.99 5.65 11.34 6.88 3.81 1.08 8.11 1.48 12.75 1.2 4.98-0.31 8.73-1.26 13-3.3 4.52-2.16 9.12-5.96 18.66-15.45 9.32-9.26 13.34-14.03 15.24-18.08 2.01-4.28 2.58-7.05 2.57-12.5-0.01-4.93-0.62-8.33-2.08-11.5-1.13-2.48-3.31-6.07-4.84-8-1.52-1.93-5.2-5.16-8.16-7.19-2.97-2.03-7.98-4.39-11.14-5.25-4.93-1.34-5.62-1.81-4.86-3.31 0.49-0.96 4.31-5.01 8.5-9 4.19-3.99 8.62-7.92 9.86-8.73 2.01-1.32 2.78-1.29 7.25 0.32 2.75 1 7.02 3.09 9.5 4.66 2.47 1.56 6.91 5.35 9.85 8.42 3.37 3.51 6.76 8.54 9.16 13.58 2.1 4.4 4.3 10.36 4.9 13.25 0.6 2.89 1.08 8.74 1.07 13-0.01 4.26-0.71 10.45-1.56 13.75-0.86 3.3-3.18 9.38-5.17 13.5-3.15 6.52-5.66 9.53-19.19 23.01-10.6 10.57-17.63 16.72-22.06 19.28-3.58 2.07-9.43 4.7-13 5.85-4.13 1.33-10.33 2.28-17 2.6-7.77 0.37-12.19 0.08-17-1.13-3.58-0.9-9.65-3.15-13.5-5.02-3.85-1.86-9.59-5.68-12.75-8.49-3.7-3.28-5.48-5.54-5-6.34q0.74-1.23-0.5-0.5c-0.82 0.48-2.35-0.9-4.45-4.01-1.75-2.61-4.4-7.45-5.87-10.75-1.48-3.3-3.19-8.36-3.81-11.25-0.62-2.89-1.11-8.96-1.11-13.5 0.01-4.54 0.71-11.18 1.55-14.75 0.85-3.57 3.05-9.65 4.91-13.5 1.85-3.85 6.04-10.15 9.31-14 3.27-3.85 6.46-6.89 7.08-6.75 0.63 0.14 0.94-0.09 0.69-0.5-0.25-0.41 20.56-21.71 46.25-47.33 25.68-25.62 48.95-48.02 51.7-49.79 2.75-1.76 7.47-4.13 10.5-5.26 3.02-1.14 8.2-2.69 11.5-3.45 3.51-0.82 9.11-1.22 13.5-0.98zm-65.27 11.56c0.15 0 0.27 0.11 0.28 0.25 0 0.14-5.06 5.2-22.51 22.25l10.98-11.25c6.04-6.19 11.11-11.25 11.25-11.25zm-178.73 43.46c25.02 0 35.15 0.13 22.5 0.29-12.65 0.16-33.13 0.16-45.5 0-12.38-0.16-2.03-0.29 23-0.29zm119.74 14.54c0.14 0 0.26 0.11 0.26 0.25 0.01 0.14-5.96 6.1-26.5 26.25l12.99-13.25c7.14-7.29 13.1-13.25 13.25-13.25zm-51.01 79c0.21 1.93 0.21 5.52 0 8-0.21 2.48-0.38 0.9-0.39-3.5 0-4.4 0.17-6.43 0.39-4.5z"/>
	</g>
</svg>